<?xml version="1.0" encoding="UTF-8"?>
<svg id="_레이어_2" data-name="레이어_2" xmlns="http://www.w3.org/2000/svg" version="1.1" viewBox="0 0 800 200">
  <!-- Generator: Adobe Illustrator 29.4.0, SVG Export Plug-In . SVG Version: 2.1.0 Build 152)  -->
  <defs>
    <style>
      .st0 {
        fill: #921a1d;
      }

      .st1 {
        fill: #1d1d1b;
      }
    </style>
  </defs>
  <g>
    <path class="st0" d="M152.49,50.33l-73.26-22.95c-13.66-4.35-28.97,4.94-33.9,20.59l-20.59,65.08c-4.92,15.83,2.19,32.25,15.86,36.42l73.26,23.15c13.86,4.38,29.15-4.92,34.09-20.79l20.59-64.87c4.9-15.86-2.2-32.23-16.05-36.62h0ZM159.06,81.5l-22.05,69.43c-2.74,8.91-12.4,13.67-21.32,10.92l-70.17-22.21c-9.11-2.75-14.2-12.4-11.3-21.15l21.88-69.43c2.72-8.93,12.37-13.85,21.52-10.94l70.15,22.08c8.92,2.9,14.04,12.37,11.3,21.3h0Z"/>
    <g>
      <path class="st0" d="M99.52,113.79c2.01-6.5-10.32-12.32-14.49-15.67-7.49-5.7-9.51-14.45-7.28-22.29-1.22,3.95-2.98,10.83-3.21,12.53-.94,6.97,1.43,14.23,7.95,19.16,2.96,2.37,10.01,5.98,13.15,10.23,1.84-.78,3.33-2.07,3.89-3.95Z"/>
      <path class="st0" d="M78.07,74.78c.08-.25.15-.49.24-.74-.08.22-.15.47-.24.74Z"/>
      <path class="st0" d="M97.85,134.97c-4.82.87-11-.49-15.34-2.14-5.82-2.19-19.51-12.19-20.5-15.36l-2.54,9.4c.98,3.17,14.68,13.18,20.48,15.37,4.35,1.65,10.52,2.99,15.36,2.14,5.02-.98,10.5-2.48,14.17-5.98,2.16-2.19,5.67-7.53,6.51-10.68.69-2.21,1.12-4.31,1.26-6.27-1.47,2.84-3.69,6.01-5.22,7.55-3.67,3.51-9.18,5-14.19,5.98Z"/>
      <path class="st0" d="M78.61,73.33c-.07.14-.13.29-.22.47.08-.22.18-.4.26-.6-.02.05-.04.09-.05.14h0Z"/>
      <path class="st0" d="M102.97,85.86c4.51,1.32,8.51,4.15,12.01,8.84l11.51-11.86c2.42-8.86.56-1.34,2.56-9.38l-11.51,11.83c-3.5-4.69-7.49-7.5-12.01-8.84-7.25-2.36-10.17,4.63-6.55,9.05,1.12-.22,2.46-.15,3.99.35h0Z"/>
      <path class="st0" d="M78.31,74.05c.03-.06.05-.18.08-.24-.03.09-.05.18-.08.24Z"/>
      <path class="st0" d="M77.74,75.83c.11-.38.22-.74.34-1.05-.11.34-.24.69-.34,1.05Z"/>
    </g>
  </g>
  <g>
    <path class="st1" d="M305.55,46.17h-62.74c-13.33.01-24.11,10.79-24.11,24.12v21.72c0,13.32,10.78,24.12,24.11,24.12h56.94v21.71h-51.15v-7.23c0-2.66-2.13-4.83-4.8-4.83h-20.26c-2.68,0-4.83,2.17-4.83,4.83v7.23c0,13.33,10.78,24.12,24.11,24.12h62.74c13.29,0,24.12-10.8,24.12-24.12v-21.72c-.02-13.31-10.84-24.12-24.12-24.12h-56.95v-21.72h51.15v7.24c0,2.66,2.14,4.83,4.82,4.83h20.26c2.66,0,4.84-2.16,4.84-4.83v-7.24c0-13.33-10.84-24.12-24.12-24.12h0Z"/>
    <path class="st1" d="M469.2,46.16h-101.29c-2.69,0-4.83,2.16-4.83,4.83v14.47c0,2.66,2.14,4.83,4.83,4.83h35.68v86.85c0,2.67,2.15,4.83,4.84,4.83h20.25c2.69,0,4.83-2.16,4.83-4.83v-86.86h35.7c2.68,0,4.84-2.16,4.84-4.83v-14.47c0-2.66-2.17-4.83-4.84-4.83h0Z"/>
    <path class="st1" d="M614.63,46.16h-102.26c-2.68,0-4.83,2.16-4.83,4.83v106.15c0,2.66,2.15,4.83,4.83,4.83h102.26c2.71,0,4.83-2.16,4.83-4.83v-14.47c0-2.66-2.12-4.83-4.83-4.83h-77.15v-21.72h77.15c2.71,0,4.83-2.16,4.83-4.82v-14.47c0-2.66-2.12-4.83-4.83-4.83h-77.15v-21.72h77.15c2.71,0,4.83-2.16,4.83-4.83v-14.47c0-2.66-2.12-4.83-4.83-4.83h0Z"/>
    <path class="st1" d="M775.31,153.61l-54.95-52.49c-.57-.44-.93-1.12-.93-1.88,0-.64.27-1.19.68-1.63l47.91-43.11h-.04c.95-.88,1.57-2.13,1.57-3.53,0-2.66-2.17-4.83-4.84-4.83h-26.46c-1.28,0-2.44.51-3.31,1.32h0l-44.04,39.7h-8.15v-36.2c0-2.66-2.13-4.83-4.8-4.83h-20.26c-2.66,0-4.8,2.16-4.8,4.83v106.15c0,2.67,2.14,4.83,4.8,4.83h20.26c2.68,0,4.8-2.16,4.8-4.83v-45.84h7.48l51.85,49.23s.05.04.06.04l.06.08c.9.81,2.03,1.32,3.31,1.32h26.47c2.65,0,4.83-2.16,4.83-4.83,0-1.38-.62-2.64-1.55-3.51h.04Z"/>
  </g>
</svg>